<svg width="189" height="18" viewBox="0 0 189 18" fill="none" xmlns="http://www.w3.org/2000/svg">
<path fill-rule="evenodd" clip-rule="evenodd" d="M142.491 0.072067C115.919 0.276692 108.322 0.409805 93.5785 0.929424C78.3 1.46791 67.3659 2.00769 50.0171 3.07993C45.9952 3.32849 41.6889 3.56439 36.6404 3.81261C18.0953 4.72442 14.4865 4.96739 8.49127 5.70749C5.52084 6.07426 2.95194 6.32808 1.51214 6.39727C0.232056 6.4587 0 6.49738 0 6.64928C0 6.78351 2.04733 6.90112 3.16713 6.83116C3.56843 6.80617 4.65566 6.74492 5.5833 6.6952C6.51095 6.6454 8.55234 6.51177 10.1197 6.39821C13.8106 6.13069 15.5828 6.04634 21.9261 5.83621C32.5899 5.48296 40.6455 5.1435 50.5405 4.63043C54.1871 4.44131 59.0289 4.19025 61.3 4.07247C78.525 3.1791 99.5653 2.38248 112.422 2.13701C128.024 1.83899 176.459 1.57552 175.641 1.79299C175.317 1.87923 169.775 2.52068 166.452 2.85652C163.4 3.16505 158.301 3.61006 152.029 4.11529C149.054 4.35498 144.971 4.68669 142.956 4.85246C135.385 5.47529 132.892 5.66846 128.59 5.96562C108.775 7.33441 95.6864 8.52718 77.4683 10.6241C66.6396 11.8705 57.7639 13.3013 47.8589 15.3974C42.2274 16.5892 41.6788 16.8008 42.233 17.5681C42.5937 18.0673 45.4352 18.132 51.1662 17.7714C61.6397 17.1126 71.4817 16.6016 81.0161 16.2216C86.9965 15.9833 87.7886 15.9433 93.8693 15.5734C96.1404 15.4352 100.066 15.2333 102.593 15.1247L107.188 14.9273L101.081 14.8495C91.8273 14.7316 81.9007 14.7387 78.6315 14.8657C67.8083 15.2862 61.9214 15.6098 52.3057 16.3128C50.0137 16.4803 48.0801 16.603 48.0087 16.5854C47.3201 16.4154 62.7332 13.8456 70.086 12.9046C86.6843 10.7802 103.777 9.19516 130.044 7.34432C132.443 7.17527 137.259 6.80549 140.746 6.52263C144.232 6.23969 149.728 5.79425 152.959 5.53259C165.394 4.52566 169.099 4.15061 181.05 2.68894C188.704 1.75275 188.745 1.74474 188.954 1.12905C189.183 0.45211 188.57 0.144959 186.813 0.057164C185.144 -0.0263231 153.899 -0.0158141 142.491 0.072067ZM107.684 14.859C107.828 14.8796 108.038 14.8788 108.149 14.8573C108.26 14.8358 108.142 14.8189 107.886 14.8198C107.63 14.8208 107.539 14.8384 107.684 14.859Z" fill="#EE212E"/>
</svg>
