<svg width="118" height="107" viewBox="0 0 118 107" fill="none" xmlns="http://www.w3.org/2000/svg">
<path d="M87.2739 81.0142C62.2739 106.014 2.75151 78.8819 15.7738 48.0141C29.2738 16.0139 72.7738 56.0139 36.2738 68.0139C-0.253916 80.023 -21.2261 22.014 -27.7261 9.51403" stroke="#FC747B" stroke-width="1.5" stroke-miterlimit="10" stroke-dasharray="3.75 3.75"/>
<path d="M109.438 60.6046L105.013 78.2311C104.827 78.9737 104.2 79.4755 103.379 79.5407C102.557 79.606 101.705 79.2215 101.156 78.5373L96.8205 73.1338L101.489 67.6739C101.704 67.4226 101.632 67.0192 101.328 66.7728C101.024 66.5264 100.603 66.5303 100.388 66.7816L95.7199 72.2416L89.4773 69.0684C88.6869 68.6666 88.1442 67.9208 88.0613 67.1219C87.9782 66.3215 88.3729 65.6318 89.0879 65.3193L106.088 57.8884C106.862 57.5501 107.806 57.7162 108.553 58.3218C109.3 58.9274 109.639 59.8021 109.438 60.6046Z" fill="#6347F9"/>
</svg>
