<svg width="61" height="14" viewBox="0 0 61 14" fill="none" xmlns="http://www.w3.org/2000/svg">
<rect x="27" y="13.4577" width="8.00714" height="0.203981" rx="0.10199" transform="rotate(-45 27 13.4577)" fill="#E0E0E0"/>
<rect x="31.8165" y="10.3949" width="3.54037" height="0.150911" rx="0.0754555" transform="rotate(-45 31.8165 10.3949)" fill="#E0E0E0"/>
<rect x="27.2847" y="11.4194" width="6.35454" height="0.168029" rx="0.0840143" transform="rotate(-45 27.2847 11.4194)" fill="#E0E0E0"/>
<path d="M28.6518 6.00843C28.6518 5.80409 31.4678 5.63843 34.9416 5.63843C38.4154 5.63843 41.2314 5.80409 41.2314 6.00843C41.2314 6.21277 38.4154 6.00842 34.9416 6.00842C31.4678 6.00842 28.6518 6.21277 28.6518 6.00843Z" fill="#FFD27B"/>
<rect width="8.21702" height="8.21702" rx="4.10851" transform="matrix(0.766044 -0.642788 -0.642788 -0.766044 34.585 11.5764)" fill="white"/>
<path d="M41.2314 6.05238C41.2314 6.25672 38.4154 6.79237 34.9416 6.79237C31.4678 6.79237 28.6517 6.25672 28.6517 6.05238C28.6517 5.84804 31.4678 6.42238 34.9416 6.42238C38.4154 6.42238 41.2314 5.84804 41.2314 6.05238Z" fill="#FFD27B"/>
<rect width="1.27757" height="1.13715" rx="0.568577" transform="matrix(0.792927 -0.609317 -0.609317 -0.792927 22.7929 4.68011)" fill="#C3C3C3"/>
<rect width="0.0929244" height="0.0925274" rx="0.0462637" transform="matrix(0.792927 -0.609317 -0.609317 -0.792927 22.7901 3.65942)" fill="#919191"/>
<rect width="0.0929244" height="0.0924625" rx="0.0462313" transform="matrix(0.792927 -0.609317 -0.609317 -0.792927 22.6562 4.2713)" fill="#919191"/>
<rect width="0.0568394" height="0.0657375" rx="0.0284197" transform="matrix(0.792927 -0.609317 -0.609317 -0.792927 23.0625 4.01166)" fill="#919191"/>
<rect width="0.0568394" height="0.0657375" rx="0.0284197" transform="matrix(0.792927 -0.609317 -0.609317 -0.792927 22.9346 3.48407)" fill="#919191"/>
<rect width="0.227665" height="0.257076" rx="0.113832" transform="matrix(0.1188 -0.992918 -0.992918 -0.1188 23.3152 3.67365)" fill="#919191"/>
<rect width="0.326089" height="0.367603" rx="0.163044" transform="matrix(0.1188 -0.992918 -0.992918 -0.1188 22.8866 4.07263)" fill="#919191"/>
<path d="M5.22231 9.096C6.16631 9.096 6.80631 8.648 7.25431 8.032L6.69431 7.728C6.39031 8.176 5.83031 8.504 5.22231 8.504C4.05431 8.504 3.16631 7.6 3.16631 6.336C3.16631 5.056 4.05431 4.168 5.22231 4.168C5.83031 4.168 6.39031 4.488 6.69431 4.944L7.24631 4.632C6.82231 4.024 6.16631 3.576 5.22231 3.576C3.68631 3.576 2.47831 4.696 2.47831 6.336C2.47831 7.976 3.68631 9.096 5.22231 9.096ZM43.3033 9V4.256H44.9993V3.664H40.9513V4.256H42.6393V9H43.3033ZM48.116 9V6.344C48.116 5.408 47.444 5.04 46.62 5.04C45.988 5.04 45.492 5.248 45.076 5.68L45.356 6.096C45.7 5.72 46.076 5.56 46.54 5.56C47.1 5.56 47.516 5.856 47.516 6.368V7.064C47.204 6.712 46.764 6.544 46.236 6.544C45.58 6.544 44.892 6.944 44.892 7.816C44.892 8.656 45.588 9.096 46.236 9.096C46.756 9.096 47.204 8.912 47.516 8.56V9H48.116ZM46.46 8.664C45.892 8.664 45.5 8.312 45.5 7.816C45.5 7.328 45.892 6.976 46.46 6.976C46.876 6.976 47.284 7.136 47.516 7.448V8.184C47.284 8.504 46.876 8.664 46.46 8.664ZM49.9266 9V3.664H49.3266V9H49.9266ZM52.8754 9.096C53.4994 9.096 54.0194 8.88 54.4114 8.496L54.1234 8.104C53.8114 8.424 53.3714 8.6 52.9234 8.6C52.0914 8.6 51.5874 7.992 51.5394 7.264H54.6594V7.112C54.6594 5.952 53.9714 5.04 52.8034 5.04C51.6994 5.04 50.8994 5.944 50.8994 7.064C50.8994 8.272 51.7234 9.096 52.8754 9.096ZM54.0674 6.816H51.5314C51.5634 6.232 51.9714 5.536 52.7954 5.536C53.6754 5.536 54.0594 6.248 54.0674 6.816Z" fill="white"/>
<path d="M9.76456 9.096C10.9406 9.096 11.6766 8.184 11.6766 7.064C11.6766 5.944 10.9406 5.04 9.76456 5.04C8.58856 5.04 7.85256 5.944 7.85256 7.064C7.85256 8.184 8.58856 9.096 9.76456 9.096ZM9.76456 8.56C8.94056 8.56 8.48456 7.856 8.48456 7.064C8.48456 6.28 8.94056 5.576 9.76456 5.576C10.5886 5.576 11.0446 6.28 11.0446 7.064C11.0446 7.856 10.5886 8.56 9.76456 8.56ZM13.8867 9.096C14.8787 9.096 15.3987 8.576 15.3987 7.928C15.3987 6.424 13.0067 6.976 13.0067 6.136C13.0067 5.792 13.3347 5.528 13.8627 5.528C14.3667 5.528 14.7827 5.736 15.0147 6.016L15.2947 5.6C14.9907 5.288 14.5267 5.04 13.8627 5.04C12.9427 5.04 12.4307 5.544 12.4307 6.152C12.4307 7.584 14.8227 7.008 14.8227 7.944C14.8227 8.328 14.4947 8.608 13.9027 8.608C13.3747 8.608 12.8867 8.352 12.6307 8.056L12.3267 8.488C12.7187 8.896 13.2467 9.096 13.8867 9.096ZM21.6374 9V6.208C21.6374 5.432 21.2614 5.04 20.5574 5.04C19.9974 5.04 19.4774 5.408 19.2614 5.76C19.1494 5.36 18.8134 5.04 18.2294 5.04C17.6534 5.04 17.1414 5.448 16.9734 5.696V5.136H16.3734V9H16.9734V6.176C17.1814 5.864 17.5974 5.576 17.9894 5.576C18.5014 5.576 18.7014 5.888 18.7014 6.376V9H19.3014V6.168C19.5014 5.856 19.9254 5.576 20.3254 5.576C20.8294 5.576 21.0374 5.888 21.0374 6.376V9H21.6374ZM26.6087 9.096C27.3127 9.096 27.7287 8.808 28.0247 8.424L27.6247 8.056C27.3687 8.4 27.0407 8.56 26.6407 8.56C25.8247 8.56 25.3047 7.92 25.3047 7.064C25.3047 6.208 25.8247 5.576 26.6407 5.576C27.0407 5.576 27.3687 5.72 27.6247 6.072L28.0247 5.712C27.7287 5.328 27.3127 5.04 26.6087 5.04C25.4567 5.04 24.6807 5.92 24.6807 7.064C24.6807 8.208 25.4567 9.096 26.6087 9.096Z" fill="#FFFFFF"/>
<path d="M23 5V9" stroke="#FFFFFF" stroke-width="0.5" stroke-miterlimit="1.34606" stroke-linejoin="round"/>
</svg>
