<svg width="61" height="14" viewBox="0 0 61 14" fill="none" xmlns="http://www.w3.org/2000/svg">
<rect x="27" y="13.4577" width="8.00714" height="0.203981" rx="0.10199" transform="rotate(-45 27 13.4577)" fill="#E0E0E0"/>
<rect x="31.8165" y="10.3949" width="3.54037" height="0.150911" rx="0.0754555" transform="rotate(-45 31.8165 10.3949)" fill="#E0E0E0"/>
<rect x="27.2847" y="11.4194" width="6.35454" height="0.168029" rx="0.0840143" transform="rotate(-45 27.2847 11.4194)" fill="#E0E0E0"/>
<path d="M28.6518 6.00846C28.6518 5.80412 31.4678 5.63846 34.9416 5.63846C38.4154 5.63846 41.2314 5.80412 41.2314 6.00846C41.2314 6.2128 38.4154 6.00845 34.9416 6.00845C31.4678 6.00845 28.6518 6.2128 28.6518 6.00846Z" fill="#FFD27B"/>
<rect width="8.21702" height="8.21702" rx="4.10851" transform="matrix(0.766044 -0.642788 -0.642788 -0.766044 34.585 11.5764)" fill="black"/>
<path d="M41.2314 6.05238C41.2314 6.25672 38.4154 6.79237 34.9416 6.79237C31.4678 6.79237 28.6518 6.25672 28.6518 6.05238C28.6518 5.84804 31.4678 6.42238 34.9416 6.42238C38.4154 6.42238 41.2314 5.84804 41.2314 6.05238Z" fill="#FFD27B"/>
<rect width="1.27757" height="1.13715" rx="0.568577" transform="matrix(0.792927 -0.609317 -0.609317 -0.792927 22.7929 4.68015)" fill="#C3C3C3"/>
<rect width="0.0929244" height="0.0925274" rx="0.0462637" transform="matrix(0.792927 -0.609317 -0.609317 -0.792927 22.7901 3.65945)" fill="#919191"/>
<rect width="0.0929244" height="0.0924625" rx="0.0462313" transform="matrix(0.792927 -0.609317 -0.609317 -0.792927 22.6562 4.27133)" fill="#919191"/>
<rect width="0.0568394" height="0.0657375" rx="0.0284197" transform="matrix(0.792927 -0.609317 -0.609317 -0.792927 23.0625 4.01172)" fill="#919191"/>
<rect width="0.0568394" height="0.0657375" rx="0.0284197" transform="matrix(0.792927 -0.609317 -0.609317 -0.792927 22.9346 3.48407)" fill="#919191"/>
<rect width="0.227665" height="0.257076" rx="0.113832" transform="matrix(0.1188 -0.992918 -0.992918 -0.1188 23.3152 3.67371)" fill="#919191"/>
<rect width="0.326089" height="0.367603" rx="0.163044" transform="matrix(0.1188 -0.992918 -0.992918 -0.1188 22.8866 4.07266)" fill="#919191"/>
<path d="M5.22231 9.09603C6.16631 9.09603 6.80631 8.64803 7.25431 8.03203L6.69431 7.72803C6.39031 8.17603 5.83031 8.50403 5.22231 8.50403C4.05431 8.50403 3.16631 7.60003 3.16631 6.33603C3.16631 5.05603 4.05431 4.16803 5.22231 4.16803C5.83031 4.16803 6.39031 4.48803 6.69431 4.94403L7.24631 4.63203C6.82231 4.02403 6.16631 3.57603 5.22231 3.57603C3.68631 3.57603 2.47831 4.69603 2.47831 6.33603C2.47831 7.97603 3.68631 9.09603 5.22231 9.09603ZM43.3033 9.00003V4.25603H44.9993V3.66403H40.9513V4.25603H42.6393V9.00003H43.3033ZM48.116 9.00003V6.34403C48.116 5.40803 47.444 5.04003 46.62 5.04003C45.988 5.04003 45.492 5.24803 45.076 5.68003L45.356 6.09603C45.7 5.72003 46.076 5.56003 46.54 5.56003C47.1 5.56003 47.516 5.85603 47.516 6.36803V7.06403C47.204 6.71203 46.764 6.54403 46.236 6.54403C45.58 6.54403 44.892 6.94403 44.892 7.81603C44.892 8.65603 45.588 9.09603 46.236 9.09603C46.756 9.09603 47.204 8.91203 47.516 8.56003V9.00003H48.116ZM46.46 8.66403C45.892 8.66403 45.5 8.31203 45.5 7.81603C45.5 7.32803 45.892 6.97603 46.46 6.97603C46.876 6.97603 47.284 7.13603 47.516 7.44803V8.18403C47.284 8.50403 46.876 8.66403 46.46 8.66403ZM49.9266 9.00003V3.66403H49.3266V9.00003H49.9266ZM52.8754 9.09603C53.4994 9.09603 54.0194 8.88003 54.4114 8.49603L54.1234 8.10403C53.8114 8.42403 53.3714 8.60003 52.9234 8.60003C52.0914 8.60003 51.5874 7.99203 51.5394 7.26403H54.6594V7.11203C54.6594 5.95203 53.9714 5.04003 52.8034 5.04003C51.6994 5.04003 50.8994 5.94403 50.8994 7.06403C50.8994 8.27203 51.7234 9.09603 52.8754 9.09603ZM54.0674 6.81603H51.5314C51.5634 6.23203 51.9714 5.53603 52.7954 5.53603C53.6754 5.53603 54.0594 6.24803 54.0674 6.81603Z" fill="black"/>
<path d="M9.76456 9.09603C10.9406 9.09603 11.6766 8.18403 11.6766 7.06403C11.6766 5.94403 10.9406 5.04003 9.76456 5.04003C8.58856 5.04003 7.85256 5.94403 7.85256 7.06403C7.85256 8.18403 8.58856 9.09603 9.76456 9.09603ZM9.76456 8.56003C8.94056 8.56003 8.48456 7.85603 8.48456 7.06403C8.48456 6.28003 8.94056 5.57603 9.76456 5.57603C10.5886 5.57603 11.0446 6.28003 11.0446 7.06403C11.0446 7.85603 10.5886 8.56003 9.76456 8.56003ZM13.8867 9.09603C14.8787 9.09603 15.3987 8.57603 15.3987 7.92803C15.3987 6.42403 13.0067 6.97603 13.0067 6.13603C13.0067 5.79203 13.3347 5.52803 13.8627 5.52803C14.3667 5.52803 14.7827 5.73603 15.0147 6.01603L15.2947 5.60003C14.9907 5.28803 14.5267 5.04003 13.8627 5.04003C12.9427 5.04003 12.4307 5.54403 12.4307 6.15203C12.4307 7.58403 14.8227 7.00803 14.8227 7.94403C14.8227 8.32803 14.4947 8.60803 13.9027 8.60803C13.3747 8.60803 12.8867 8.35203 12.6307 8.05603L12.3267 8.48803C12.7187 8.89603 13.2467 9.09603 13.8867 9.09603ZM21.6374 9.00003V6.20803C21.6374 5.43203 21.2614 5.04003 20.5574 5.04003C19.9974 5.04003 19.4774 5.40803 19.2614 5.76003C19.1494 5.36003 18.8134 5.04003 18.2294 5.04003C17.6534 5.04003 17.1414 5.44803 16.9734 5.69603V5.13603H16.3734V9.00003H16.9734V6.17603C17.1814 5.86403 17.5974 5.57603 17.9894 5.57603C18.5014 5.57603 18.7014 5.88803 18.7014 6.37603V9.00003H19.3014V6.16803C19.5014 5.85603 19.9254 5.57603 20.3254 5.57603C20.8294 5.57603 21.0374 5.88803 21.0374 6.37603V9.00003H21.6374ZM26.6087 9.09603C27.3127 9.09603 27.7287 8.80803 28.0247 8.42403L27.6247 8.05603C27.3687 8.40003 27.0407 8.56003 26.6407 8.56003C25.8247 8.56003 25.3047 7.92003 25.3047 7.06403C25.3047 6.20803 25.8247 5.57603 26.6407 5.57603C27.0407 5.57603 27.3687 5.72003 27.6247 6.07203L28.0247 5.71203C27.7287 5.32803 27.3127 5.04003 26.6087 5.04003C25.4567 5.04003 24.6807 5.92003 24.6807 7.06403C24.6807 8.20803 25.4567 9.09603 26.6087 9.09603Z" fill="#6347F9"/>
<path d="M23 5.00003V9.00003" stroke="#6347F9" stroke-width="0.5" stroke-miterlimit="1.34606" stroke-linejoin="round"/>
</svg>
