<svg width="132" height="23" viewBox="0 0 132 23" fill="none" xmlns="http://www.w3.org/2000/svg">
<path d="M7.712 4H0C0 1.52533 1.12 0.288 3.36 0.288H19.712C19.712 2.76267 18.5813 4 16.32 4H12.0001V19.808C12.0001 20.832 11.6374 21.6213 10.9121 22.176C10.1867 22.7093 9.12005 22.976 7.712 22.976V4ZM24.68 22.976C23.2933 22.976 22.0347 22.7307 20.9041 22.24C19.7947 21.728 18.9201 21.024 18.2801 20.128C17.6401 19.232 17.32 18.2187 17.32 17.088V12.576C17.32 11.424 17.6294 10.3787 18.2481 9.44C18.8881 8.50133 19.7626 7.76533 20.872 7.232C21.9813 6.67733 23.2506 6.4 24.68 6.4C26.1093 6.4 27.3787 6.67733 28.4881 7.232C29.6187 7.76533 30.4933 8.50133 31.112 9.44C31.752 10.3787 32.072 11.424 32.072 12.576V17.088C32.072 18.2187 31.7414 19.232 31.0801 20.128C30.4401 21.024 29.5546 21.728 28.424 22.24C27.3146 22.7307 26.0666 22.976 24.68 22.976ZM24.68 19.552C25.7466 19.552 26.5787 19.3067 27.1761 18.816C27.7947 18.3253 28.104 17.664 28.104 16.832V12.768C28.104 11.8933 27.7947 11.1893 27.1761 10.656C26.5787 10.1013 25.7466 9.824 24.68 9.824C23.6346 9.824 22.8026 10.1013 22.184 10.656C21.5653 11.1893 21.2561 11.8933 21.2561 12.768V16.832C21.2561 17.664 21.5653 18.3253 22.184 18.816C22.8026 19.3067 23.6346 19.552 24.68 19.552ZM48.6055 19.872C48.6055 20.8747 48.2855 21.6427 47.6455 22.176C47.0268 22.7093 46.0776 22.976 44.7976 22.976V21.056C45.0749 20.736 45.3309 20.384 45.5656 20L45.3736 19.872C44.0082 21.9413 42.1735 22.976 39.8695 22.976C38.7815 22.976 37.8001 22.7307 36.9255 22.24C36.0721 21.728 35.3895 21.024 34.8775 20.128C34.3868 19.232 34.1416 18.2187 34.1416 17.088V8.832C34.1416 7.95733 34.4616 7.33867 35.1016 6.976C35.7629 6.592 36.7656 6.4 38.1096 6.4V16.8C38.1096 17.632 38.3655 18.2933 38.8775 18.784C39.3895 19.2747 40.1255 19.52 41.0855 19.52C42.1521 19.52 43.0055 19.1893 43.6455 18.528C44.3068 17.8453 44.6376 17.0027 44.6376 16V8.832C44.6376 7.95733 44.9575 7.33867 45.5975 6.976C46.2375 6.592 47.2401 6.4 48.6055 6.4V19.872ZM60.591 9.856C59.3323 9.856 58.3084 10.1973 57.5191 10.88C56.7297 11.5413 56.335 12.3733 56.335 13.376V20.544C56.335 21.3973 56.015 22.016 55.375 22.4C54.735 22.784 53.7324 22.976 52.3671 22.976V9.472C52.3671 8.49067 52.6764 7.73333 53.2951 7.2C53.9351 6.66667 54.895 6.4 56.175 6.4V8.288C55.855 8.65067 55.5991 9.00267 55.4071 9.344L55.599 9.472C56.943 7.424 58.6283 6.4 60.655 6.4C61.5723 6.4 62.2657 6.64533 62.7351 7.136C63.2044 7.60533 63.4391 8.20267 63.4391 8.928C63.4391 9.48267 63.2897 9.952 62.9911 10.336C62.4151 10.016 61.615 9.856 60.591 9.856ZM68.4195 22.688C67.8008 22.688 67.2675 22.464 66.8195 22.016C66.3928 21.568 66.1795 21.0347 66.1795 20.416V3.168C66.1795 2.10133 66.5315 1.312 67.2355 0.800002C67.9395 0.266667 69.0168 0 70.4675 0V18.976H79.1075C80.1101 18.976 80.8675 19.296 81.3795 19.936C81.8915 20.5547 82.1475 21.472 82.1475 22.688H68.4195ZM90.468 22.976C89.1453 22.976 87.94 22.72 86.852 22.208C85.764 21.6747 84.9 20.96 84.26 20.064C83.62 19.1467 83.3 18.1227 83.3 16.992V12.736C83.3 11.5413 83.6306 10.464 84.292 9.504C84.9533 8.544 85.828 7.78667 86.916 7.232C88.0253 6.67733 89.22 6.4 90.5 6.4C91.7586 6.4 92.9106 6.66667 93.956 7.2C95.0226 7.712 95.8653 8.43733 96.484 9.376C97.1026 10.2933 97.412 11.3493 97.412 12.544V14.336C97.412 14.8053 97.2306 15.2 96.868 15.52C96.5266 15.84 96.0893 16 95.556 16H87.172V16.704C87.172 17.6213 87.4493 18.368 88.004 18.944C88.5586 19.52 89.3906 19.808 90.5 19.808C91.5666 19.808 92.356 19.5733 92.868 19.104C93.4013 18.6347 93.668 18.0267 93.668 17.28C94.052 17.2373 94.3186 17.216 94.468 17.216C95.2573 17.216 95.876 17.3973 96.324 17.76C96.772 18.1013 96.996 18.592 96.996 19.232C96.996 19.8507 96.708 20.448 96.132 21.024C95.556 21.6 94.7666 22.0693 93.764 22.432C92.7613 22.7947 91.6626 22.976 90.468 22.976ZM93.796 13.152V12.544C93.796 11.648 93.4866 10.9227 92.868 10.368C92.2493 9.8133 91.4493 9.536 90.468 9.536C89.4866 9.536 88.6866 9.8133 88.068 10.368C87.4706 10.9013 87.172 11.6267 87.172 12.544V13.152H93.796ZM107.468 22.976C106.146 22.976 104.94 22.72 103.852 22.208C102.764 21.6747 101.9 20.96 101.26 20.064C100.62 19.1467 100.3 18.1227 100.3 16.992V12.736C100.3 11.5413 100.631 10.464 101.292 9.504C101.954 8.544 102.828 7.78667 103.916 7.232C105.026 6.67733 106.22 6.4 107.5 6.4C108.759 6.4 109.911 6.66667 110.956 7.2C112.023 7.712 112.866 8.43733 113.484 9.376C114.103 10.2933 114.412 11.3493 114.412 12.544V14.336C114.412 14.8053 114.231 15.2 113.868 15.52C113.527 15.84 113.09 16 112.556 16H104.172V16.704C104.172 17.6213 104.45 18.368 105.004 18.944C105.559 19.52 106.391 19.808 107.5 19.808C108.567 19.808 109.356 19.5733 109.868 19.104C110.402 18.6347 110.668 18.0267 110.668 17.28C111.052 17.2373 111.319 17.216 111.468 17.216C112.258 17.216 112.876 17.3973 113.324 17.76C113.772 18.1013 113.996 18.592 113.996 19.232C113.996 19.8507 113.708 20.448 113.132 21.024C112.556 21.6 111.767 22.0693 110.764 22.432C109.762 22.7947 108.663 22.976 107.468 22.976ZM110.796 13.152V12.544C110.796 11.648 110.487 10.9227 109.868 10.368C109.25 9.8133 108.45 9.536 107.468 9.536C106.487 9.536 105.687 9.8133 105.068 10.368C104.471 10.9013 104.172 11.6267 104.172 12.544V13.152H110.796ZM131.924 21.824C131.732 22.1867 131.455 22.4747 131.092 22.688C130.73 22.88 130.314 22.976 129.844 22.976C129.439 22.976 129.076 22.88 128.756 22.688C128.436 22.5173 128.127 22.2293 127.828 21.824L123.604 15.584L121.428 17.6V20.544C121.428 21.3973 121.098 22.016 120.436 22.4C119.796 22.784 118.815 22.976 117.492 22.976V3.072C117.492 1.024 118.826 0 121.492 0V13.216L128.82 6.4C129.887 7.232 130.42 7.91467 130.42 8.448C130.42 8.78933 130.324 9.088 130.132 9.344C129.962 9.6 129.684 9.8987 129.3 10.24L125.94 13.376L131.924 21.824Z" fill="#1F3347"/>
</svg>
