<svg width="133" height="24" viewBox="0 0 133 24" fill="none" xmlns="http://www.w3.org/2000/svg">
<path d="M8.63925 4.312H0.92725C0.92725 1.83733 2.04725 0.599998 4.28725 0.599998H20.6393C20.6393 3.07467 19.5086 4.312 17.2473 4.312H12.9273V20.12C12.9273 21.144 12.5646 21.9333 11.8393 22.488C11.1139 23.0213 10.0473 23.288 8.63925 23.288V4.312ZM25.6073 23.288C24.2206 23.288 22.9619 23.0427 21.8313 22.552C20.7219 22.04 19.8473 21.336 19.2073 20.44C18.5673 19.544 18.2473 18.5307 18.2473 17.4V12.888C18.2473 11.736 18.5566 10.6907 19.1753 9.752C19.8153 8.81333 20.6899 8.07733 21.7993 7.544C22.9086 6.98933 24.1779 6.712 25.6073 6.712C27.0366 6.712 28.3059 6.98933 29.4153 7.544C30.5459 8.07733 31.4206 8.81333 32.0393 9.752C32.6793 10.6907 32.9993 11.736 32.9993 12.888V17.4C32.9993 18.5307 32.6686 19.544 32.0073 20.44C31.3673 21.336 30.4819 22.04 29.3513 22.552C28.2419 23.0427 26.9939 23.288 25.6073 23.288ZM25.6073 19.864C26.6739 19.864 27.5059 19.6187 28.1033 19.128C28.7219 18.6373 29.0313 17.976 29.0313 17.144V13.08C29.0313 12.2053 28.7219 11.5013 28.1033 10.968C27.5059 10.4133 26.6739 10.136 25.6073 10.136C24.5619 10.136 23.7299 10.4133 23.1113 10.968C22.4926 11.5013 22.1833 12.2053 22.1833 13.08V17.144C22.1833 17.976 22.4926 18.6373 23.1113 19.128C23.7299 19.6187 24.5619 19.864 25.6073 19.864ZM49.5328 20.184C49.5328 21.1867 49.2128 21.9547 48.5728 22.488C47.9541 23.0213 47.0048 23.288 45.7248 23.288V21.368C46.0021 21.048 46.2581 20.696 46.4928 20.312L46.3008 20.184C44.9354 22.2533 43.1008 23.288 40.7968 23.288C39.7088 23.288 38.7274 23.0427 37.8528 22.552C36.9994 22.04 36.3168 21.336 35.8048 20.44C35.3141 19.544 35.0688 18.5307 35.0688 17.4V9.144C35.0688 8.26933 35.3888 7.65067 36.0288 7.288C36.6901 6.904 37.6928 6.712 39.0368 6.712V17.112C39.0368 17.944 39.2928 18.6053 39.8048 19.096C40.3168 19.5867 41.0528 19.832 42.0128 19.832C43.0794 19.832 43.9328 19.5013 44.5728 18.84C45.2341 18.1573 45.5648 17.3147 45.5648 16.312V9.144C45.5648 8.26933 45.8848 7.65067 46.5248 7.288C47.1648 6.904 48.1674 6.712 49.5328 6.712V20.184ZM61.5183 10.168C60.2596 10.168 59.2356 10.5093 58.4463 11.192C57.6569 11.8533 57.2623 12.6853 57.2623 13.688V20.856C57.2623 21.7093 56.9423 22.328 56.3023 22.712C55.6623 23.096 54.6596 23.288 53.2943 23.288V9.784C53.2943 8.80267 53.6036 8.04533 54.2223 7.512C54.8623 6.97867 55.8223 6.712 57.1023 6.712V8.6C56.7823 8.96267 56.5263 9.31467 56.3343 9.656L56.5263 9.784C57.8703 7.736 59.5556 6.712 61.5823 6.712C62.4996 6.712 63.1929 6.95733 63.6623 7.448C64.1316 7.91733 64.3663 8.51467 64.3663 9.24C64.3663 9.79467 64.2169 10.264 63.9183 10.648C63.3423 10.328 62.5423 10.168 61.5183 10.168ZM69.3468 23C68.7281 23 68.1948 22.776 67.7468 22.328C67.3201 21.88 67.1068 21.3467 67.1068 20.728V3.48C67.1068 2.41333 67.4588 1.624 68.1628 1.112C68.8668 0.578665 69.9441 0.311998 71.3948 0.311998V19.288H80.0348C81.0374 19.288 81.7948 19.608 82.3068 20.248C82.8188 20.8667 83.0748 21.784 83.0748 23H69.3468ZM91.3953 23.288C90.0726 23.288 88.8673 23.032 87.7793 22.52C86.6913 21.9867 85.8273 21.272 85.1873 20.376C84.5473 19.4587 84.2273 18.4347 84.2273 17.304V13.048C84.2273 11.8533 84.5579 10.776 85.2193 9.816C85.8806 8.856 86.7553 8.09867 87.8433 7.544C88.9526 6.98933 90.1473 6.712 91.4273 6.712C92.6859 6.712 93.8379 6.97867 94.8833 7.512C95.9499 8.024 96.7926 8.74933 97.4113 9.688C98.0299 10.6053 98.3393 11.6613 98.3393 12.856V14.648C98.3393 15.1173 98.1579 15.512 97.7953 15.832C97.4539 16.152 97.0166 16.312 96.4833 16.312H88.0993V17.016C88.0993 17.9333 88.3766 18.68 88.9313 19.256C89.4859 19.832 90.3179 20.12 91.4273 20.12C92.4939 20.12 93.2833 19.8853 93.7953 19.416C94.3286 18.9467 94.5953 18.3387 94.5953 17.592C94.9793 17.5493 95.2459 17.528 95.3953 17.528C96.1846 17.528 96.8033 17.7093 97.2513 18.072C97.6993 18.4133 97.9233 18.904 97.9233 19.544C97.9233 20.1627 97.6353 20.76 97.0593 21.336C96.4833 21.912 95.6939 22.3813 94.6913 22.744C93.6886 23.1067 92.5899 23.288 91.3953 23.288ZM94.7233 13.464V12.856C94.7233 11.96 94.4139 11.2347 93.7953 10.68C93.1766 10.1253 92.3766 9.848 91.3953 9.848C90.4139 9.848 89.6139 10.1253 88.9953 10.68C88.3979 11.2133 88.0993 11.9387 88.0993 12.856V13.464H94.7233ZM108.395 23.288C107.073 23.288 105.867 23.032 104.779 22.52C103.691 21.9867 102.827 21.272 102.187 20.376C101.547 19.4587 101.227 18.4347 101.227 17.304V13.048C101.227 11.8533 101.558 10.776 102.219 9.816C102.881 8.856 103.755 8.09867 104.843 7.544C105.953 6.98933 107.147 6.712 108.427 6.712C109.686 6.712 110.838 6.97867 111.883 7.512C112.95 8.024 113.793 8.74933 114.411 9.688C115.03 10.6053 115.339 11.6613 115.339 12.856V14.648C115.339 15.1173 115.158 15.512 114.795 15.832C114.454 16.152 114.017 16.312 113.483 16.312H105.099V17.016C105.099 17.9333 105.377 18.68 105.931 19.256C106.486 19.832 107.318 20.12 108.427 20.12C109.494 20.12 110.283 19.8853 110.795 19.416C111.329 18.9467 111.595 18.3387 111.595 17.592C111.979 17.5493 112.246 17.528 112.395 17.528C113.185 17.528 113.803 17.7093 114.251 18.072C114.699 18.4133 114.923 18.904 114.923 19.544C114.923 20.1627 114.635 20.76 114.059 21.336C113.483 21.912 112.694 22.3813 111.691 22.744C110.689 23.1067 109.59 23.288 108.395 23.288ZM111.723 13.464V12.856C111.723 11.96 111.414 11.2347 110.795 10.68C110.177 10.1253 109.377 9.848 108.395 9.848C107.414 9.848 106.614 10.1253 105.995 10.68C105.398 11.2133 105.099 11.9387 105.099 12.856V13.464H111.723ZM132.851 22.136C132.659 22.4987 132.382 22.7867 132.019 23C131.657 23.192 131.241 23.288 130.771 23.288C130.366 23.288 130.003 23.192 129.683 23C129.363 22.8293 129.054 22.5413 128.755 22.136L124.531 15.896L122.355 17.912V20.856C122.355 21.7093 122.025 22.328 121.363 22.712C120.723 23.096 119.742 23.288 118.419 23.288V3.384C118.419 1.336 119.753 0.311998 122.419 0.311998V13.528L129.747 6.712C130.814 7.544 131.347 8.22667 131.347 8.76C131.347 9.10133 131.251 9.4 131.059 9.656C130.889 9.912 130.611 10.2107 130.227 10.552L126.867 13.688L132.851 22.136Z" fill="#1F3347"/>
</svg>
