<svg width="58" height="57" viewBox="0 0 58 57" fill="none" xmlns="http://www.w3.org/2000/svg">
<g clip-path="url(#clip0_36_44016)">
<path d="M28.689 56.9982C44.4281 56.9982 57.1871 44.2391 57.1871 28.5001C57.1871 12.761 44.4281 0.00195312 28.689 0.00195312C12.95 0.00195312 0.190918 12.761 0.190918 28.5001C0.190918 44.2391 12.95 56.9982 28.689 56.9982Z" fill="#7EC0EA"/>
<path d="M14.8397 52.4136C14.8344 52.4243 14.8272 52.4314 14.8218 52.4421C14.8649 52.4528 14.9062 52.467 14.9493 52.4759L14.8397 52.4136Z" fill="#B1DDCA"/>
<path d="M13.0468 12.2477L12.9897 12.1318C13.466 12.0604 13.4981 11.7251 13.8602 11.602C14.2723 11.4664 14.1314 11.6145 14.5363 11.602C14.8645 11.5877 15.0643 11.8268 15.4389 11.652C15.3479 11.8125 15.1999 11.9231 15.0518 12.0319C14.7432 12.2513 14.4275 12.4761 14.06 12.5617C13.6926 12.6455 13.2609 12.5563 13.0468 12.2477Z" fill="#B1DDCA"/>
<path d="M18.7479 37.6491C18.7408 37.9006 18.5927 38.12 18.4643 38.3323C17.8917 39.267 17.5439 40.3498 17.4672 41.4468C17.3905 42.4975 17.4368 43.7925 16.5217 44.3098C15.9991 44.6006 15.2642 44.5488 14.9163 45.0394C14.8075 45.1874 14.7558 45.3747 14.704 45.5496C14.4793 46.3683 14.2527 47.1871 14.028 48.0059C13.7372 47.9809 13.4411 47.9488 13.1521 47.9167C13.4946 48.0255 13.7319 48.4893 13.5267 48.8068C13.1985 48.6338 12.7668 48.8389 12.5849 49.1689C12.4118 49.4971 12.4368 49.8967 12.5331 50.2588C12.831 51.3291 13.7461 52.1925 14.8236 52.4493C14.6363 52.8043 14.0637 52.6491 13.714 52.4119C11.2185 50.7244 9.33478 48.1539 8.47499 45.2659C8.17174 44.2474 7.9773 43.1646 7.3833 42.2888C6.8874 41.5485 6.1382 41.0062 5.6423 40.2659C4.94662 39.2028 4.8164 37.8239 4.01012 36.8517C3.55881 36.297 2.86134 35.6155 3.26092 35.0215C3.42146 34.7772 3.76395 34.5453 3.62838 34.2866C3.58379 34.2028 3.49281 34.151 3.42146 34.0797C3.15032 33.7889 3.33762 33.3323 3.47319 32.9577C3.69795 32.3066 3.69795 31.6109 3.60162 30.9152C2.92378 30.3087 2.38864 29.5559 2.05328 28.7104C1.85349 28.1949 1.58771 27.5509 1.03473 27.5438C0.892021 27.1442 0.743965 26.7447 0.60126 26.3451C0.54953 26.4878 0.408609 26.577 0.253418 26.5966C0.681532 20.0661 3.31443 14.1403 7.41184 9.54877C7.50281 9.50952 7.592 9.45779 7.68298 9.40606C8.65515 8.83881 9.42932 7.98794 10.3694 7.36895C10.562 7.24052 10.7814 7.11744 11.0205 7.14241C11.2524 7.16203 11.4718 7.39928 11.3879 7.61869C11.3558 7.70966 11.2791 7.78101 11.2006 7.8381C10.1 8.77459 8.89418 9.59336 7.61162 10.2712C7.45822 10.3479 7.29589 10.4389 7.22632 10.5941C7.0961 10.8581 7.31551 11.1863 7.59379 11.2826C7.87028 11.379 8.18066 11.3219 8.46428 11.2577C8.22525 11.5984 8.1539 12.0568 8.27698 12.4564C8.54099 12.4813 8.62483 12.121 8.70331 11.8695C9.0244 10.8706 10.6173 10.4639 10.5139 9.41141C10.9456 9.63617 11.3844 9.13314 11.6484 8.72108C11.9124 8.30189 12.4993 7.88983 12.8221 8.25729C12.84 8.46243 12.8649 8.66935 12.8846 8.87627C13.4518 8.73357 14.0262 8.58551 14.5934 8.44281C14.2706 8.66935 14.1618 9.15276 14.3473 9.5006C14.5346 9.84845 14.9984 10.0233 15.3658 9.88055C15.3605 10.1838 15.0893 10.4157 14.8432 10.5959C14.2188 11.0668 13.5481 11.5502 12.8203 11.7821L12.988 12.1299C12.9702 12.1371 12.9506 12.1442 12.9309 12.1442C12.4671 12.1888 11.9766 11.8552 11.4807 11.9194C11.1775 11.9587 10.8046 11.9587 10.6298 12.2673C10.6049 12.3065 10.496 12.847 10.5727 12.8024C10.8439 12.6472 11.1132 12.492 11.379 12.3386C11.4611 12.558 11.4807 12.8024 11.4361 13.0415C11.7643 13.0094 12.1068 13.0789 12.3976 13.2537C12.0943 13.9566 11.3148 14.4275 10.5478 14.3686C10.5406 14.1367 10.5281 13.9048 10.521 13.6729C9.88955 13.6212 9.37403 14.1635 9.05829 14.7058C8.73721 15.2534 8.49282 15.8795 7.96303 16.2273C7.64195 16.4467 7.24773 16.5306 6.89988 16.7108C6.55918 16.8981 6.24344 17.253 6.3148 17.633C6.3469 17.8131 6.46285 17.9808 6.4575 18.1681C6.43788 18.516 6.03295 18.6783 5.76182 18.9031C5.29803 19.2901 5.18208 20.0001 4.68618 20.3408C4.32585 20.5923 3.84779 20.587 3.4286 20.7154C3.0094 20.8438 2.59021 21.263 2.75967 21.6697C2.55275 21.7411 2.30123 21.5859 2.28161 21.3665C1.54133 22.8239 1.05256 24.4097 0.852777 26.0347C1.22024 26.2916 1.59306 25.7047 1.66441 25.2605C1.74111 24.8164 2.1282 24.2348 2.48853 24.4989C2.40469 25.1375 2.32085 25.7689 2.2388 26.4075C2.21917 26.5306 2.20669 26.659 2.26555 26.7679C2.33691 26.9034 2.49031 26.9605 2.60804 27.0568C2.93626 27.3405 2.89167 27.8435 2.91129 28.2752C2.93091 28.8032 3.10573 29.3187 3.38222 29.77C3.35546 29.679 3.33762 29.5898 3.318 29.4989C3.82103 29.5631 4.34369 29.4008 4.72364 29.0654C4.92343 28.8852 5.0911 28.6533 5.34262 28.5624C5.60127 28.466 5.8849 28.5356 6.1489 28.607C6.96767 28.8317 7.83817 29.0832 8.3858 29.7272C8.66229 30.0554 8.8371 30.4693 9.1671 30.7386C9.91452 31.3701 11.1792 31.0918 11.8624 31.7946C12.4101 32.3619 12.3084 33.277 12.1603 34.0565C11.7857 33.8514 11.2845 34.3669 11.5039 34.7343C11.7037 34.5149 11.9356 34.283 12.2263 34.283C12.5224 34.2759 12.7811 34.6826 12.5617 34.8699C13.0772 34.2117 14.3401 34.4828 14.5399 35.3016C15.2624 35.3533 15.9902 35.4033 16.7126 35.4621C16.5735 36.5217 18.7925 36.5841 18.7479 37.6491Z" fill="#B1DDCA"/>
<path d="M14.3543 7.82533C14.0761 7.96268 13.6925 7.80749 13.5891 7.51495C13.4838 7.2224 13.6818 6.86029 13.9851 6.79072C14.1759 6.74613 14.4417 6.76753 14.5006 6.58023C14.5184 6.52315 14.5077 6.46072 14.5077 6.40185C14.5006 6.04866 14.8163 5.75611 15.157 5.66692C15.4977 5.57952 15.8581 5.6473 16.2041 5.71509C16.3272 5.97017 16.3629 6.26628 16.304 6.54277C16.0668 6.55347 15.8295 6.56239 15.5923 6.5731C15.6137 6.96732 15.5744 7.46322 15.2088 7.60949C14.8805 7.73971 14.4524 7.49711 14.1795 7.7183" fill="#B1DDCA"/>
<path d="M18.0488 3.88865C18.6963 3.57827 19.244 3.0895 19.8826 2.76128C20.9814 2.1976 22.264 2.14765 23.4984 2.10841C26.3078 2.021 29.1173 1.9336 31.9268 1.84619C31.2757 2.20295 30.6247 2.5615 29.9718 2.91826C29.4402 3.2108 28.8355 3.51048 28.2522 3.34459C28.2397 3.81373 28.666 4.24898 29.137 4.24541C27.9828 4.95893 26.381 4.22936 25.1626 4.82872C24.6525 5.08023 24.2404 5.55473 23.6785 5.64392C23.3539 5.69565 23.0167 5.60824 22.6939 5.67959C22.1534 5.79732 21.8127 6.30928 21.4131 6.69101C20.9529 7.13161 20.2768 7.43308 19.6757 7.22259C19.0745 7.0121 18.7606 6.11841 19.2422 5.701C19.4794 5.49586 19.8184 5.46197 20.0984 5.31748C20.3785 5.17478 20.5997 4.79126 20.3892 4.55758C20.2982 4.4559 20.1484 4.41666 20.0645 4.30784C19.9736 4.19011 19.9825 4.02244 19.9076 3.894C19.6221 3.39275 18.8284 4.06703 18.2879 3.86546" fill="#B1DDCA"/>
<path d="M26.5806 6.25934C26.9605 6.17194 27.2905 5.94718 27.6455 5.78307C28.0005 5.61896 28.4232 5.52263 28.7711 5.69566C28.8745 5.95431 28.5766 6.18977 28.3144 6.28253C27.8114 6.45913 27.2655 6.50729 26.7393 6.41988" fill="#B1DDCA"/>
<path d="M49.5506 9.09382C49.4472 9.10631 49.3383 9.10095 49.2278 9.0742C48.7443 8.97074 48.3769 8.59792 47.963 8.32678C47.0087 7.69531 45.7065 7.61326 44.6755 8.12878C44.9199 7.7738 45.0429 7.33498 45.0162 6.9033L44.8681 6.95503C43.1789 5.97572 41.1988 4.95895 39.3562 5.61718C38.9298 5.77237 38.5445 6.00426 38.1129 6.15232C37.6544 6.31286 37.146 6.37886 36.7536 6.66249C36.354 6.94611 36.1418 7.57223 36.4842 7.91294C36.775 8.2037 37.2388 8.12521 37.6455 8.16446C38.0451 8.2037 38.5035 8.60149 38.2841 8.94398C36.5181 9.76988 34.7468 10.6029 32.9808 11.436C33.7925 11.7 34.3294 12.6204 34.1546 13.4588C33.5606 13.5623 32.988 13.2019 32.3886 13.1627C31.5181 13.1181 30.6869 13.8851 30.669 14.7556C30.6441 15.6261 31.4432 16.4306 32.3137 16.4181C32.9648 16.411 33.6034 16.0186 34.2349 16.1845C34.2598 15.5904 34.6665 15.0874 35.084 14.6629C35.8956 13.8494 37.0551 13.1145 38.1396 13.5141C38.4946 13.6425 38.7978 13.8816 39.0939 14.1188C39.745 14.6343 40.3961 15.1552 41.049 15.6779C41.2559 15.4656 41.4611 15.2515 41.668 15.0464C42.023 15.421 42.3779 15.7938 42.7383 16.1737C42.9184 16.0507 43.1057 15.9347 43.2859 15.8116C43.4143 16.147 43.5499 16.4752 43.6801 16.8106C43.7318 16.4431 43.7764 16.0828 43.821 15.7207C44.2474 15.7331 44.6987 15.7456 45.084 15.553C45.4711 15.3657 45.7547 14.9019 45.5924 14.5023C45.5085 14.29 45.3087 14.1224 45.2695 13.8958C45.1856 13.4445 45.8296 13.1359 46.2488 13.3411C46.6609 13.5408 46.8678 14.0118 47.0426 14.4435C47.1389 14.0046 47.2281 13.573 47.3262 13.1341C47.7294 14.1937 48.3109 15.1855 49.0333 16.056C47.7115 15.8045 46.3184 15.949 45.0822 16.4574C45.4764 17.0121 46.1525 17.3404 46.8303 17.3136C47.1336 17.3065 47.4689 17.2369 47.7008 17.4296C47.8756 17.5776 47.9202 17.8166 47.9523 18.036C48.0558 18.655 48.1593 19.2669 48.2556 19.8787C47.5581 19.3061 46.5538 19.3703 45.6441 19.3525C44.7343 19.3275 43.6712 19.076 43.3358 18.2323C42.9755 18.639 42.815 19.2187 42.9184 19.761C41.9766 19.5362 40.8938 19.1759 40.6227 18.2465C39.8877 18.5177 38.9726 18.0485 38.7729 17.294C38.7015 17.03 38.6819 16.7071 38.45 16.5662C38.3091 16.4823 38.1271 16.4948 37.9594 16.5145C36.5609 16.6768 35.1678 16.832 33.7764 16.9943C33.0165 17.0853 32.2299 17.1762 31.5591 17.5491C30.8884 17.9165 30.3551 18.639 30.4318 19.4007C29.1492 20.1623 28.0611 21.2647 27.3262 22.5616C27.0943 22.9611 26.8945 23.4196 26.9855 23.8709C27.0497 24.2187 27.2816 24.5148 27.3529 24.8573C27.476 25.4442 27.1407 26.0114 26.9997 26.5912C26.6002 28.2412 27.8524 29.7949 29.0137 31.0436C29.5613 31.6233 30.1945 32.2548 30.9937 32.2869C31.4896 32.3065 31.9605 32.0871 32.4243 31.9051C33.7514 31.3825 35.1963 31.1435 36.6198 31.2005C36.2969 31.4521 36.6323 31.9997 37.0337 32.0835C37.4332 32.1674 37.8649 32.0371 38.252 32.1727C39.135 32.4885 39.0137 33.7835 38.6141 34.629C38.8139 34.5898 39.0208 34.5505 39.2259 34.5131C39.1171 34.7967 39.0065 35.0803 38.8977 35.3568C40.1089 35.5102 40.5674 37.1032 40.2855 38.2947C40.009 39.4881 39.3009 40.5834 39.2812 41.8088C39.2759 42.4796 39.481 43.1306 39.688 43.7675C40.2053 45.3854 40.7208 47.0033 41.2381 48.6266C42.683 48.7996 43.5124 46.9623 44.8539 46.3879C45.3569 46.1685 45.9491 46.1239 46.3433 45.7493C46.7233 45.3889 46.6002 44.5434 46.1114 44.5434C46.775 44.4721 47.3423 43.8656 47.3619 43.1949C47.369 43.0076 47.3423 42.8203 47.3672 42.6347C47.4118 42.3707 47.5795 42.1389 47.7401 41.9123C48.764 40.4425 49.4275 38.7585 50.0911 37.096C50.2641 36.6501 50.439 36.213 50.612 35.7671C51.2684 34.1099 51.9195 32.4599 52.576 30.8028C52.8328 30.1517 53.0915 29.5077 53.3483 28.8548C52.9934 29.4417 52.0658 29.365 51.536 28.9262C51.0009 28.4892 50.7226 27.8238 50.3034 27.2762C49.9484 26.8052 49.4703 26.3878 49.3027 25.8134C49.2063 25.4852 49.2242 25.1302 49.1671 24.7878C49.0369 24.0457 48.5481 23.4285 48.2128 22.7578C47.8774 22.0871 47.7026 21.2184 48.1735 20.6297C49.5292 22.995 50.7618 25.4299 51.8767 27.9255C51.9998 27.5384 52.2834 27.203 52.6437 27.0157C52.9077 26.873 53.2039 26.8159 53.4821 26.7C54.2171 26.3771 54.7254 25.5976 54.7254 24.7985C54.7183 23.9993 54.2099 23.2198 53.4679 22.9041C53.1004 22.7489 52.6812 22.6989 52.3334 22.4849C51.9855 22.2797 51.734 21.8088 51.9534 21.4663C52.1585 21.1434 52.6562 21.1506 52.9969 21.3307C53.3394 21.518 53.5909 21.8338 53.912 22.046C54.1439 22.2012 54.4151 22.3029 54.6666 22.4456C56.0276 23.2251 56.363 24.9982 56.6484 26.5448C56.8036 27.3761 56.9784 28.202 57.1853 29.0136C57.1924 28.8388 57.1907 28.6586 57.1907 28.4856C57.1835 20.99 54.2848 14.1777 49.5506 9.09382ZM52.1603 18.4588C51.973 18.4463 51.8 18.3232 51.6502 18.2073C51.4058 18.0146 51.1596 17.7881 51.0883 17.4848C51.0044 17.1245 51.1775 16.7107 50.9848 16.3896C50.8938 16.2344 50.7333 16.1381 50.5977 16.0293C50.2427 15.7456 49.9841 15.3389 49.8878 14.9019C49.8039 14.5148 49.9252 13.9993 50.3194 13.9351C50.5067 13.903 50.7119 14.0064 50.7957 14.1795L50.5317 14.3222C50.9759 14.3739 51.1828 15.0446 50.8421 15.3336C50.7975 15.3782 50.7386 15.4174 50.7386 15.4816C50.7386 15.5209 50.7636 15.5583 50.7975 15.5851C51.074 15.8883 51.4878 15.9972 51.8482 16.1898C52.2085 16.3771 52.5635 16.7249 52.5064 17.1245C52.3904 17.1691 52.2816 17.2084 52.1657 17.253C52.0426 17.376 52.1407 17.5954 52.2691 17.7167C52.3976 17.838 52.5653 17.9611 52.5724 18.1413C52.5724 18.3357 52.353 18.4713 52.1603 18.4588Z" fill="#B1DDCA"/>
<path d="M52.3459 38.291L51.8803 38.621C52.0427 39.1918 51.718 39.8608 51.1668 40.0837C50.876 40.2015 50.489 40.2532 50.3908 40.5511C50.3088 40.8044 50.505 41.0613 50.5318 41.3253C50.5746 41.7641 50.1643 42.0923 49.8682 42.4187C49.5721 42.7452 49.4151 43.3588 49.8093 43.555C49.9003 43.6014 50.0055 43.6103 50.1072 43.6192C50.5353 43.6567 51.0045 43.6692 51.3541 43.4195C52.3566 42.7041 51.404 40.7634 52.3941 40.0284C52.535 39.925 52.7116 39.8501 52.7883 39.6931C53.022 39.2311 52.1604 38.7726 52.3459 38.291Z" fill="#B1DDCA"/>
</g>
<defs>
<clipPath id="clip0_36_44016">
<rect width="57" height="57" fill="white" transform="translate(0.190918)"/>
</clipPath>
</defs>
</svg>
