<svg width="88" height="74" viewBox="0 0 88 74" fill="none" xmlns="http://www.w3.org/2000/svg">
<path d="M53.0482 3.0835H34.8365C33.3875 3.0835 31.9979 3.57077 30.9733 4.43813C29.9487 5.30549 29.373 6.48188 29.373 7.7085V13.8752C29.373 14.2841 29.5649 14.6762 29.9065 14.9653C30.248 15.2544 30.7112 15.4168 31.1942 15.4168H56.6906C57.1736 15.4168 57.6368 15.2544 57.9783 14.9653C58.3199 14.6762 58.5117 14.2841 58.5117 13.8752V7.7085C58.5117 6.48188 57.9361 5.30549 56.9115 4.43813C55.8869 3.57077 54.4972 3.0835 53.0482 3.0835ZM54.8694 12.3335H33.0154V7.7085C33.0154 7.29963 33.2073 6.9075 33.5488 6.61838C33.8903 6.32926 34.3535 6.16683 34.8365 6.16683H53.0482C53.5312 6.16683 53.9945 6.32926 54.336 6.61838C54.6775 6.9075 54.8694 7.29963 54.8694 7.7085V12.3335Z" fill="#1F3347"/>
<path d="M20.267 61.667H12.9823C12.4993 61.667 12.0361 61.8294 11.6945 62.1185C11.353 62.4077 11.1611 62.7998 11.1611 63.2087V67.8337C11.1611 68.6514 11.5449 69.4357 12.2279 70.0139C12.911 70.5922 13.8375 70.917 14.8035 70.917H18.4458C19.4118 70.917 20.3382 70.5922 21.0213 70.0139C21.7044 69.4357 22.0881 68.6514 22.0881 67.8337V63.2087C22.0881 62.7998 21.8963 62.4077 21.5547 62.1185C21.2132 61.8294 20.75 61.667 20.267 61.667Z" fill="#1F3347"/>
<path d="M74.9017 61.667H67.6171C67.1341 61.667 66.6708 61.8294 66.3293 62.1185C65.9878 62.4077 65.7959 62.7998 65.7959 63.2087V67.8337C65.7959 68.6514 66.1796 69.4357 66.8627 70.0139C67.5458 70.5922 68.4722 70.917 69.4382 70.917H73.0806C74.0466 70.917 74.973 70.5922 75.6561 70.0139C76.3392 69.4357 76.7229 68.6514 76.7229 67.8337V63.2087C76.7229 62.7998 76.531 62.4077 76.1895 62.1185C75.848 61.8294 75.3847 61.667 74.9017 61.667Z" fill="#1F3347"/>
<path d="M74.902 12.3335H12.9823C7.95329 12.3335 3.87646 15.7846 3.87646 20.0418V57.0419C3.87646 61.2991 7.95329 64.7503 12.9823 64.7503H74.902C79.931 64.7503 84.0078 61.2991 84.0078 57.0419V20.0418C84.0078 15.7846 79.931 12.3335 74.902 12.3335Z" fill="#F2737B"/>
<path d="M47.5844 24.1737L45.7632 19.5487C45.6872 19.3561 45.567 19.1781 45.4094 19.0249C45.2519 18.8718 45.0601 18.7464 44.8452 18.6562C44.6303 18.5659 44.3964 18.5125 44.1571 18.499C43.9177 18.4855 43.6775 18.5122 43.4503 18.5775L32.5233 21.6608C32.2958 21.7252 32.0855 21.827 31.9046 21.9603C31.7236 22.0937 31.5756 22.256 31.469 22.4379C31.3624 22.6199 31.2993 22.8178 31.2833 23.0205C31.2674 23.2231 31.2989 23.4264 31.376 23.6187L33.1972 28.2437C33.314 28.5378 33.533 28.7952 33.8254 28.9822C34.1178 29.1693 34.4701 29.2772 34.8362 29.2921C35.0336 29.2879 35.2295 29.262 35.419 29.215L46.346 26.1317C46.5817 26.0754 46.8016 25.9794 46.9925 25.8495C47.1834 25.7196 47.3414 25.5584 47.457 25.3756C47.5726 25.1928 47.6435 24.9922 47.6654 24.7857C47.6873 24.5792 47.6597 24.371 47.5844 24.1737Z" fill="#BEE1F4"/>
<path d="M40.2997 57.0417C45.3287 57.0417 49.4055 53.5905 49.4055 49.3333C49.4055 45.0761 45.3287 41.625 40.2997 41.625C35.2707 41.625 31.1938 45.0761 31.1938 49.3333C31.1938 53.5905 35.2707 57.0417 40.2997 57.0417Z" fill="#BEE1F4"/>
<path d="M79.3639 47.9616L76.7232 46.8362V44.7087C76.7232 44.2998 76.5314 43.9077 76.1898 43.6186C75.8483 43.3294 75.3851 43.167 74.9021 43.167H67.6174C67.3408 43.1658 67.0675 43.2179 66.8182 43.3194C66.5689 43.4209 66.3502 43.5691 66.1787 43.7528C66.0084 43.9381 65.8904 44.1539 65.8335 44.3837C65.7767 44.6134 65.7827 44.8511 65.8509 45.0787L67.672 51.2454C67.7696 51.5796 67.9966 51.8766 68.3168 52.0889C68.6369 52.3012 69.0318 52.4168 69.4386 52.417H78.5444C79.0274 52.417 79.4906 52.2546 79.8322 51.9655C80.1737 51.6764 80.3656 51.2842 80.3656 50.8754V49.3337C80.3646 49.049 80.2704 48.7701 80.0936 48.5279C79.9168 48.2857 79.6643 48.0897 79.3639 47.9616Z" fill="#A30000"/>
<path d="M18.4457 26.2085H11.161C10.1552 26.2085 9.33984 26.8987 9.33984 27.7502V33.9168C9.33984 34.7683 10.1552 35.4585 11.161 35.4585H18.4457C19.4515 35.4585 20.2668 34.7683 20.2668 33.9168V27.7502C20.2668 26.8987 19.4515 26.2085 18.4457 26.2085Z" fill="#F0AB00"/>
<path d="M77.6521 27.9662L68.437 23.3412L61.1524 20.2578L55.7799 17.1745C55.5372 17.039 55.2598 16.9547 54.9707 16.9286C54.6817 16.9025 54.3895 16.9354 54.1185 17.0244C53.8475 17.1134 53.6056 17.2561 53.4131 17.4405C53.2205 17.6248 53.0829 17.8455 53.0118 18.0841L51.1906 24.2508C51.1197 24.5354 51.1453 24.8312 51.2645 25.104C51.3838 25.3768 51.5917 25.6154 51.8644 25.7924L59.1491 30.4174L59.4223 30.5562L70.3493 35.1812C70.6144 35.3467 70.9309 35.4431 71.2598 35.4587C71.4995 35.4599 71.7371 35.421 71.959 35.3443C72.1809 35.2675 72.3827 35.1545 72.5529 35.0116L78.0164 30.3866C78.2105 30.2201 78.3573 30.0183 78.4456 29.7966C78.534 29.5749 78.5616 29.3391 78.5263 29.107C78.4933 28.8729 78.3974 28.6484 78.2458 28.4506C78.0943 28.2528 77.8912 28.0871 77.6521 27.9662Z" fill="#F0AB00"/>
<path d="M19.9028 49.3336L10.797 50.8752C10.5477 50.911 10.31 50.9903 10.099 51.1081C9.88793 51.2259 9.70816 51.3796 9.57112 51.5594C9.43407 51.7392 9.34275 51.9413 9.30297 52.1526C9.26318 52.3639 9.27581 52.5799 9.34004 52.7869L11.1612 58.9536C11.2121 59.1591 11.312 59.3535 11.4549 59.5252C11.5977 59.6968 11.7805 59.8419 11.9919 59.9516C12.2034 60.0613 12.439 60.1333 12.6845 60.1631C12.93 60.193 13.1801 60.1801 13.4195 60.1253L20.7041 58.5836C21.1082 58.4992 21.4659 58.3002 21.7178 58.0197C21.9696 57.7391 22.1003 57.3941 22.0882 57.0419V50.8752C22.0864 50.6475 22.0251 50.423 21.9086 50.2177C21.7921 50.0125 21.6233 49.8316 21.4144 49.6882C21.2096 49.5374 20.9675 49.4274 20.706 49.366C20.4445 49.3047 20.1701 49.2936 19.9028 49.3336Z" fill="#7DC3E8"/>
<path d="M60.3328 32.375H43.9423C42.9365 32.375 42.1211 33.0652 42.1211 33.9167V38.5417C42.1211 39.3931 42.9365 40.0833 43.9423 40.0833H60.3328C61.3386 40.0833 62.1539 39.3931 62.1539 38.5417V33.9167C62.1539 33.0652 61.3386 32.375 60.3328 32.375Z" fill="#7DC3E8"/>
<path d="M18.4458 12.3335H29.3728V64.7503H18.4458V12.3335Z" fill="#1F3347"/>
<path d="M58.5117 12.3335H69.4387V64.7503H58.5117V12.3335Z" fill="#1F3347"/>
</svg>
