<svg width="84" height="83" viewBox="0 0 84 83" fill="none" xmlns="http://www.w3.org/2000/svg">
<g clip-path="url(#clip0_36_44028)">
<path d="M71.2402 22.6439H63.1303L62.1235 20.009L61.412 18.164L60.844 16.6902L59.1328 12.2489L58 9.29879L57.2885 7.45576L56.3384 4.99131L68.6304 0.261193C70.6735 -0.515903 72.9662 0.498568 73.7433 2.54037L77.5233 12.3686C75.4956 13.1592 74.4798 15.4371 75.2569 17.4808C75.8501 19.0472 77.3534 20.0102 78.9327 20.0102L80.3692 19.7465L81.9105 23.7729L71.2402 22.6439Z" fill="#F6BB42"/>
<path d="M69.9884 26.4552C69.724 26.4552 69.4738 26.2957 69.3734 26.0332L62.0618 7.03299C61.9312 6.69333 62.0997 6.31122 62.4394 6.18192C62.7848 6.05004 63.1618 6.21987 63.2905 6.56017L70.6028 25.5604C70.7334 25.9001 70.5642 26.2822 70.2245 26.4115C70.1467 26.4417 70.0663 26.4552 69.9884 26.4552Z" fill="#EDAB37"/>
<path d="M72.4772 25.5949C72.2122 25.5949 71.962 25.4341 71.8623 25.1736L66.8832 12.2357C66.7533 11.896 66.9218 11.5152 67.2615 11.3846C67.6056 11.256 67.9832 11.4232 68.1125 11.7629L73.0909 24.7008C73.2215 25.0404 73.053 25.4212 72.7133 25.5518C72.6368 25.5808 72.5564 25.5949 72.4772 25.5949Z" fill="#EDAB37"/>
<path d="M65.9702 59.5339H4.04955C1.86236 59.5339 0.097168 57.768 0.097168 55.5815V45.0418C2.28436 45.0418 4.04955 43.276 4.04955 41.0895C4.04955 38.9023 2.28436 37.1371 0.097168 37.1371V26.5974C0.097168 24.4102 1.86236 22.645 4.04955 22.645H65.9702V59.5339Z" fill="#AC92EC"/>
<path d="M65.9702 55.5815V22.645H79.1448C81.332 22.645 83.0972 24.4102 83.0972 26.5974V37.1371C80.91 37.1371 79.1448 38.9023 79.1448 41.0895C79.1448 43.276 80.91 45.0418 83.0972 45.0418V55.5815C83.0972 57.768 81.332 59.5339 79.1448 59.5339H65.9702V55.5815Z" fill="#FFCE54"/>
<path d="M17.2898 22.6437H10.4316L56.3382 4.98926L57.2883 7.45435L57.9998 9.29738L59.1339 12.2488L60.8438 16.6901L61.4118 18.1639L63.13 22.6437H17.2898Z" fill="#967ADC"/>
<path d="M65.9703 27.9138C65.6068 27.9138 65.3115 27.6185 65.3115 27.255V25.2788C65.3115 24.9147 65.6068 24.6201 65.9703 24.6201C66.3337 24.6201 66.629 24.9147 66.629 25.2788V27.255C66.629 27.6198 66.3337 27.9138 65.9703 27.9138Z" fill="#AC92EC"/>
<path d="M65.9703 51.6292C65.6068 51.6292 65.3115 51.3339 65.3115 50.9704V47.0181C65.3115 46.654 65.6068 46.3593 65.9703 46.3593C66.3337 46.3593 66.629 46.654 66.629 47.0181V50.9704C66.629 51.3339 66.3337 51.6292 65.9703 51.6292ZM65.9703 43.7244C65.6068 43.7244 65.3115 43.4291 65.3115 43.0657V39.1133C65.3115 38.7492 65.6068 38.4546 65.9703 38.4546C66.3337 38.4546 66.629 38.7492 66.629 39.1133V43.0657C66.629 43.4291 66.3337 43.7244 65.9703 43.7244ZM65.9703 35.8196C65.6068 35.8196 65.3115 35.5244 65.3115 35.1609V31.2085C65.3115 30.8431 65.6068 30.5498 65.9703 30.5498C66.3337 30.5498 66.629 30.8444 66.629 31.2085V35.1609C66.629 35.5244 66.3337 35.8196 65.9703 35.8196Z" fill="#AC92EC"/>
<path d="M65.9703 57.5578C65.6068 57.5578 65.3115 57.2625 65.3115 56.8991V54.9229C65.3115 54.5588 65.6068 54.2642 65.9703 54.2642C66.3337 54.2642 66.629 54.5588 66.629 54.9229V56.8991C66.629 57.2625 66.3337 57.5578 65.9703 57.5578Z" fill="#AC92EC"/>
<path d="M71.2398 56.2405C70.8763 56.2405 70.5811 55.9453 70.5811 55.5818V26.5977C70.5811 26.2336 70.8763 25.939 71.2398 25.939C71.6032 25.939 71.8985 26.2336 71.8985 26.5977V55.5818C71.8985 55.9453 71.6032 56.2405 71.2398 56.2405Z" fill="#F6BB42"/>
<path d="M73.875 49.6533C73.5116 49.6533 73.2163 49.3581 73.2163 48.9946V33.1851C73.2163 32.821 73.5116 32.5264 73.875 32.5264C74.2385 32.5264 74.5338 32.821 74.5338 33.1851V48.9946C74.5338 49.3581 74.2385 49.6533 73.875 49.6533Z" fill="#F6BB42"/>
<path d="M19.2396 53.6055H19.2267C18.8645 53.6055 18.5757 53.9001 18.5757 54.2642C18.5757 54.6277 18.8774 54.9229 19.2408 54.9229C19.6037 54.9229 19.8996 54.6277 19.8996 54.2642C19.8996 53.9001 19.6037 53.6055 19.2396 53.6055Z" fill="#967ADC"/>
<path d="M27.7902 40.4307C27.428 40.4307 27.1392 40.7253 27.1392 41.0894C27.1392 41.4529 27.4409 41.7481 27.8043 41.7481C28.1671 41.7481 28.463 41.4529 28.463 41.0894C28.463 40.7253 28.1671 40.4307 27.8043 40.4307H27.7902Z" fill="#967ADC"/>
<path d="M33.0731 27.255C33.4359 27.255 33.7318 26.9597 33.7318 26.5962C33.7318 26.2321 33.4359 25.9375 33.0731 25.9375H33.0602C32.698 25.9375 32.4092 26.2321 32.4092 26.5962C32.4092 26.9597 32.7096 27.255 33.0731 27.255Z" fill="#967ADC"/>
<path d="M56.7874 29.8897C57.1502 29.8897 57.4462 29.5945 57.4462 29.231C57.4462 28.8669 57.1502 28.5723 56.7874 28.5723H56.7746C56.4124 28.5723 56.1235 28.8669 56.1235 29.231C56.1235 29.5945 56.424 29.8897 56.7874 29.8897Z" fill="#967ADC"/>
<path d="M44.9171 41.7485C44.555 41.7485 44.2661 42.0432 44.2661 42.4073C44.2661 42.7707 44.5678 43.066 44.9313 43.066C45.2941 43.066 45.59 42.7707 45.59 42.4073C45.59 42.0432 45.2941 41.7485 44.9313 41.7485H44.9171Z" fill="#967ADC"/>
<path d="M23.1917 53.6055H23.1788C22.8167 53.6055 22.5278 53.9001 22.5278 54.2642C22.5278 54.6277 22.8295 54.9229 23.193 54.9229C23.5558 54.9229 23.8517 54.6277 23.8517 54.2642C23.8517 53.9001 23.5558 53.6055 23.1917 53.6055Z" fill="#967ADC"/>
<path d="M27.1443 53.6055H27.1315C26.7693 53.6055 26.4805 53.9001 26.4805 54.2642C26.4805 54.6277 26.7822 54.9229 27.1456 54.9229C27.5084 54.9229 27.8044 54.6277 27.8044 54.2642C27.8044 53.9001 27.5084 53.6055 27.1443 53.6055Z" fill="#967ADC"/>
<path d="M31.0965 53.6055H31.0836C30.7215 53.6055 30.4326 53.9001 30.4326 54.2642C30.4326 54.6277 30.7343 54.9229 31.0978 54.9229C31.4606 54.9229 31.7565 54.6277 31.7565 54.2642C31.7565 53.9001 31.4606 53.6055 31.0965 53.6055Z" fill="#967ADC"/>
<path d="M35.0491 53.6055H35.0363C34.6741 53.6055 34.3853 53.9001 34.3853 54.2642C34.3853 54.6277 34.687 54.9229 35.0504 54.9229C35.4132 54.9229 35.7091 54.6277 35.7091 54.2642C35.7091 53.9001 35.4132 53.6055 35.0491 53.6055Z" fill="#967ADC"/>
<path d="M39.0013 53.6055H38.9884C38.6262 53.6055 38.3374 53.9001 38.3374 54.2642C38.3374 54.6277 38.6391 54.9229 39.0026 54.9229C39.3654 54.9229 39.6613 54.6277 39.6613 54.2642C39.6613 53.9001 39.3654 53.6055 39.0013 53.6055Z" fill="#967ADC"/>
<path d="M42.9539 53.6055H42.9411C42.5789 53.6055 42.29 53.9001 42.29 54.2642C42.29 54.6277 42.5917 54.9229 42.9552 54.9229C43.318 54.9229 43.6139 54.6277 43.6139 54.2642C43.6139 53.9001 43.318 53.6055 42.9539 53.6055Z" fill="#967ADC"/>
<path d="M46.9061 53.6055H46.8932C46.531 53.6055 46.2422 53.9001 46.2422 54.2642C46.2422 54.6277 46.5439 54.9229 46.9074 54.9229C47.2702 54.9229 47.5661 54.6277 47.5661 54.2642C47.5661 53.9001 47.2702 53.6055 46.9061 53.6055Z" fill="#967ADC"/>
<path d="M50.8587 53.6055H50.8458C50.4837 53.6055 50.1948 53.9001 50.1948 54.2642C50.1948 54.6277 50.4965 54.9229 50.86 54.9229C51.2228 54.9229 51.5187 54.6277 51.5187 54.2642C51.5187 53.9001 51.2228 53.6055 50.8587 53.6055Z" fill="#967ADC"/>
<path d="M17.883 38.4546C17.883 38.8181 18.1782 39.1133 18.5417 39.1133C18.9052 39.1133 19.2004 38.8181 19.2004 38.4546V31.2086H21.1766C21.5401 31.2086 21.8354 30.9133 21.8354 30.5498C21.8354 30.1857 21.5401 29.8911 21.1766 29.8911H15.9068C15.5433 29.8911 15.248 30.1857 15.248 30.5498C15.248 30.9133 15.5433 31.2086 15.9068 31.2086H17.883V38.4546Z" fill="#F5F7FA"/>
<path d="M53.4545 29.8901H48.1846C47.8211 29.8901 47.5259 30.1848 47.5259 30.5489C47.5259 30.9123 47.8211 31.2076 48.1846 31.2076H50.1608V38.4536C50.1608 38.8171 50.4561 39.1124 50.8195 39.1124C51.183 39.1124 51.4783 38.8171 51.4783 38.4536V31.2076H53.4545C53.8179 31.2076 54.1132 30.9123 54.1132 30.5489C54.1132 30.1848 53.8179 29.8901 53.4545 29.8901Z" fill="#F5F7FA"/>
<path d="M23.8116 39.1133C24.175 39.1133 24.4703 38.8181 24.4703 38.4546V30.5498C24.4703 30.1857 24.175 29.8911 23.8116 29.8911C23.4481 29.8911 23.1528 30.1857 23.1528 30.5498V38.4546C23.1528 38.8181 23.4481 39.1133 23.8116 39.1133Z" fill="#F5F7FA"/>
<path d="M35.0098 39.1134C35.3733 39.1134 35.6685 38.8181 35.6685 38.4547V36.0397L36.2655 35.244L38.3967 38.7943C38.5209 39.0002 38.7396 39.1134 38.9622 39.1134C39.078 39.1134 39.1951 39.0832 39.3018 39.0195C39.6132 38.831 39.7142 38.4283 39.5276 38.1144L37.1192 34.1054L39.4903 30.9436C39.7078 30.6509 39.6486 30.2398 39.3572 30.0211C39.0677 29.8056 38.6553 29.8635 38.4353 30.1543L35.6685 33.8435V30.5499C35.6685 30.1858 35.3733 29.8912 35.0098 29.8912C34.6463 29.8912 34.3511 30.1858 34.3511 30.5499V38.4547C34.3511 38.8181 34.6463 39.1134 35.0098 39.1134Z" fill="#F5F7FA"/>
<path d="M29.7399 39.1133C31.1931 39.1133 32.3748 37.9316 32.3748 36.4784C32.3748 36.1143 32.0796 35.8197 31.7161 35.8197C31.3526 35.8197 31.0574 36.1143 31.0574 36.4784C31.0574 37.2053 30.4668 37.7959 29.7399 37.7959C29.013 37.7959 28.4224 37.2053 28.4224 36.4784V32.526C28.4224 31.7985 29.013 31.2086 29.7399 31.2086C30.4668 31.2086 31.0574 31.7985 31.0574 32.526C31.0574 32.8895 31.3526 33.1848 31.7161 33.1848C32.0796 33.1848 32.3748 32.8895 32.3748 32.526C32.3748 31.0716 31.1931 29.8911 29.7399 29.8911C28.2867 29.8911 27.105 31.0716 27.105 32.526V36.4784C27.105 37.9303 28.2867 39.1133 29.7399 39.1133Z" fill="#F5F7FA"/>
<path d="M42.2559 39.1133H46.2083C46.5717 39.1133 46.867 38.8181 46.867 38.4546C46.867 38.0905 46.5717 37.7959 46.2083 37.7959H42.9146V35.161H44.8908C45.2543 35.161 45.5495 34.8657 45.5495 34.5022C45.5495 34.1381 45.2543 33.8435 44.8908 33.8435H42.9146V31.2086H46.2083C46.5717 31.2086 46.867 30.9133 46.867 30.5498C46.867 30.1857 46.5717 29.8911 46.2083 29.8911H42.2559C41.8924 29.8911 41.5972 30.1857 41.5972 30.5498V38.4546C41.5972 38.8181 41.8924 39.1133 42.2559 39.1133Z" fill="#F5F7FA"/>
<path d="M51.478 45.7007H18.5415C18.1781 45.7007 17.8828 45.9953 17.8828 46.3594C17.8828 46.7229 18.1781 47.0181 18.5415 47.0181H51.478C51.8415 47.0181 52.1368 46.7229 52.1368 46.3594C52.1368 45.9953 51.8415 45.7007 51.478 45.7007Z" fill="#967ADC"/>
<path d="M42.9145 48.9947C42.9145 48.6306 42.6192 48.3359 42.2558 48.3359H27.7637C27.4003 48.3359 27.105 48.6306 27.105 48.9947C27.105 49.3581 27.4003 49.6534 27.7637 49.6534H42.2558C42.6192 49.6534 42.9145 49.3581 42.9145 48.9947Z" fill="#967ADC"/>
<path d="M58.0656 37.796H57.4069V37.1372C57.4069 36.7731 57.1116 36.4785 56.7482 36.4785C56.3847 36.4785 56.0894 36.7731 56.0894 37.1372V37.796H55.4307C55.0672 37.796 54.772 38.0906 54.772 38.4547C54.772 38.8182 55.0672 39.1134 55.4307 39.1134H56.0894V39.7722C56.0894 40.1356 56.3847 40.4309 56.7482 40.4309C57.1116 40.4309 57.4069 40.1356 57.4069 39.7722V39.1134H58.0656C58.4291 39.1134 58.7244 38.8182 58.7244 38.4547C58.7244 38.0906 58.4291 37.796 58.0656 37.796Z" fill="#967ADC"/>
<path d="M11.9543 31.2086H11.2956V30.5498C11.2956 30.1857 11.0003 29.8911 10.6368 29.8911C10.2734 29.8911 9.9781 30.1845 9.9781 30.5486V31.2073H9.31937C8.95592 31.2073 8.66064 31.5019 8.66064 31.866C8.66064 32.2295 8.95592 32.5247 9.31937 32.5247H9.9781V33.1835C9.9781 33.5469 10.2734 33.8422 10.6368 33.8422C11.0003 33.8422 11.2956 33.5469 11.2956 33.1835V32.5247H11.9543C12.3178 32.5247 12.613 32.2295 12.613 31.866C12.613 31.5019 12.3178 31.2086 11.9543 31.2086Z" fill="#967ADC"/>
<path d="M57.9999 9.95657C57.7361 9.95657 57.4859 9.7964 57.3842 9.53651L56.6727 7.69219C56.5428 7.35253 56.7113 6.9717 57.051 6.84111C57.3881 6.70924 57.7715 6.87907 57.9021 7.21808L58.6136 9.06111C58.7441 9.40077 58.5756 9.78289 58.2353 9.91219C58.1588 9.94371 58.0783 9.95657 57.9999 9.95657Z" fill="#967ADC"/>
<path d="M60.2718 15.8645C60.0074 15.8645 59.7584 15.705 59.6568 15.4425L58.5188 12.4866C58.3882 12.1463 58.5568 11.7654 58.8964 11.6355C59.2341 11.5049 59.6156 11.6735 59.7475 12.0131L60.8861 14.9697C61.0167 15.3093 60.8475 15.6902 60.5079 15.8207C60.4313 15.8497 60.3496 15.8645 60.2718 15.8645Z" fill="#967ADC"/>
<path d="M62.1231 20.6676C61.8594 20.6676 61.6091 20.5081 61.5075 20.2456L60.7966 18.4026C60.666 18.0629 60.8346 17.6808 61.1742 17.5515C61.512 17.4184 61.8954 17.5901 62.0253 17.9285L62.7368 19.7728C62.8674 20.1125 62.6989 20.4933 62.3585 20.6239C62.2826 20.6528 62.2022 20.6676 62.1231 20.6676Z" fill="#967ADC"/>
</g>
<defs>
<clipPath id="clip0_36_44028">
<rect width="83" height="83" fill="white" transform="translate(0.097168)"/>
</clipPath>
</defs>
</svg>
